<?xml version="1.0" encoding="iso-8859-1"?>
<!-- Generator: Adobe Illustrator 16.0.0, SVG Export Plug-In . SVG Version: 6.00 Build 0)  -->
<!DOCTYPE svg PUBLIC "-//W3C//DTD SVG 1.1//EN" "http://www.w3.org/Graphics/SVG/1.1/DTD/svg11.dtd">
<svg version="1.1" id="Capa_1" xmlns="http://www.w3.org/2000/svg" xmlns:xlink="http://www.w3.org/1999/xlink" x="0px" y="0px"
	 width="493.305px" height="493.305px" viewBox="0 0 493.305 493.305" style="enable-background:new 0 0 493.305 493.305;"
	 xml:space="preserve">
<g>
	<g>
		<path d="M331.2,435.215c4.475-6.549,8.738-13.66,12.758-21.33c3.055-5.824,5.926-11.898,8.615-18.186l-12.953-12.953
			c-5.539,2.777-11.283,5.076-17.182,6.902c-13.549,29.738-31.125,51.807-50.729,62.143c-3.329,0.404-6.685,0.73-10.06,0.975
			v-61.252c-20.04-4.854-38.411-15.096-53.338-30.021c-4.426-4.424-8.414-9.166-12-14.147c-14.809-1.853-29.076-4.465-42.557-7.797
			c-5.911-23.926-9.654-50.272-10.654-77.897h33.643c1.79-10.457,5.005-20.534,9.576-29.993H143.1
			c1-27.625,4.743-53.975,10.658-77.9c23.926-5.913,50.273-9.656,77.896-10.657v39.683c9.367-5.443,19.445-9.506,29.994-12.061
			v-27.622c27.625,1.001,53.973,4.744,77.9,10.658c2.291,9.271,4.246,18.915,5.854,28.848c8.541,4.929,16.502,10.983,23.658,18.138
			c3.666,3.667,7.018,7.542,10.086,11.573c-1.273-16.634-3.459-32.863-6.535-48.46c38.324,14.206,66.959,34.555,79.18,57.741
			c0.404,3.329,0.73,6.683,0.977,10.059h-61.748c4.621,9.564,7.844,19.665,9.637,29.993h52.111c-0.244,3.375-0.57,6.729-0.977,10.06
			c-9.623,18.258-29.43,34.754-56.123,47.878c-1.52,4.229-3.303,8.395-5.35,12.471l15.783,15.786
			c2.635-1.267,5.24-2.551,7.783-3.885c7.672-4.021,14.781-8.283,21.33-12.759c-4.637,10.298-10.096,20.146-16.285,29.47
			l28.848,28.849c29.572-41.447,45.527-90.928,45.527-142.864c0-65.884-25.656-127.823-72.244-174.41
			C374.476,25.656,312.536,0,246.653,0C180.77,0,118.83,25.656,72.243,72.242C25.657,118.829,0.001,180.768,0.001,246.652
			c0,65.883,25.656,127.822,72.242,174.409c46.587,46.588,108.527,72.244,174.41,72.244c55.61,0,108.407-18.279,151.536-51.992
			l-28.635-28.635C357.677,421.494,344.833,429.078,331.2,435.215z M435.216,162.104c-6.549-4.475-13.658-8.737-21.33-12.759
			c-15.113-7.923-31.873-14.643-49.848-20.08c-5.436-17.975-12.154-34.732-20.08-49.848c-4.02-7.669-8.283-14.781-12.758-21.328
			C377.296,78.84,414.466,116.008,435.216,162.104z M261.649,40.538c3.375,0.243,6.729,0.571,10.06,0.976
			c23.187,12.223,43.536,40.855,57.739,79.18c-21.588-4.258-44.381-6.836-67.799-7.609V40.538L261.649,40.538z M221.598,41.513
			c3.329-0.404,6.682-0.732,10.057-0.976v72.546c-23.416,0.773-46.207,3.352-67.799,7.609
			C178.059,82.369,198.411,53.736,221.598,41.513z M162.104,58.09c-4.473,6.547-8.736,13.659-12.758,21.328
			c-7.923,15.115-14.643,31.873-20.08,49.848c-17.975,5.438-34.732,12.157-49.846,20.08c-7.672,4.021-14.782,8.284-21.33,12.759
			C78.841,116.008,116.01,78.84,162.104,58.09z M41.514,221.597c12.223-23.188,40.855-43.537,79.18-57.742
			c-4.259,21.591-6.836,44.383-7.609,67.801H40.54C40.784,228.279,41.11,224.926,41.514,221.597z M41.514,271.707
			c-0.404-3.33-0.73-6.684-0.975-10.059h72.545c0.773,23.418,3.351,46.209,7.609,67.799
			C82.37,315.242,53.737,294.893,41.514,271.707z M58.09,331.199c6.549,4.475,13.659,8.736,21.331,12.758
			c15.113,7.924,31.871,14.645,49.846,20.08c5.438,17.975,12.157,34.734,20.08,49.848c4.021,7.67,8.285,14.781,12.758,21.33
			C116.01,414.465,78.841,377.295,58.09,331.199z M231.655,452.766c-3.375-0.244-6.728-0.57-10.057-0.977
			c-23.188-12.223-43.539-40.854-57.742-79.18c21.592,4.258,44.383,6.836,67.799,7.608V452.766L231.655,452.766z"/>
		<path d="M356.032,213.771c-37.137-37.134-97.558-37.134-134.691,0c-37.137,37.135-37.137,97.557,0,134.69
			c32.93,32.93,84.164,36.652,121.24,11.186l101.916,101.918l24.637-24.635L367.216,335.011
			C392.685,297.936,388.96,246.699,356.032,213.771z M331.396,323.828c-23.549,23.549-61.869,23.551-85.42,0
			s-23.551-61.871,0-85.422c23.551-23.551,61.872-23.551,85.42,0C354.948,261.957,354.946,300.277,331.396,323.828z"/>
	</g>
</g>
<g>
</g>
<g>
</g>
<g>
</g>
<g>
</g>
<g>
</g>
<g>
</g>
<g>
</g>
<g>
</g>
<g>
</g>
<g>
</g>
<g>
</g>
<g>
</g>
<g>
</g>
<g>
</g>
<g>
</g>
</svg>
