<?xml version="1.0" encoding="utf-8"?>
<!-- Generator: Adobe Illustrator 18.0.0, SVG Export Plug-In . SVG Version: 6.00 Build 0)  -->
<!DOCTYPE svg PUBLIC "-//W3C//DTD SVG 1.1//EN" "http://www.w3.org/Graphics/SVG/1.1/DTD/svg11.dtd">
<svg version="1.1" id="Layer_1" xmlns="http://www.w3.org/2000/svg" xmlns:xlink="http://www.w3.org/1999/xlink" x="0px" y="0px"
	 viewBox="0 0 40.9 40.4" enable-background="new 0 0 40.9 40.4" xml:space="preserve">
<g id="XMLID_1859_">
	<path id="XMLID_1964_" fill="#2DABE2" d="M21,39.4L21,39.4c-10.5,0-19-8.5-19-19v0c0-10.5,8.5-19,19-19h0c10.5,0,19,8.5,19,19v0
		C40,30.9,31.5,39.4,21,39.4z"/>
	<g id="XMLID_1863_">
		<path id="XMLID_1872_" fill-rule="evenodd" clip-rule="evenodd" fill="#FFFFFF" d="M31.4,19.9c-0.1-5.5-4.7-9.9-10.2-9.9
			c-5.5,0-10,4.3-10.2,9.7c0,0.1,0,0.3,0,0.4c0,1.9,0.5,3.7,1.5,5.3l-1.8,5.5l5.7-1.8c1.5,0.8,3.2,1.3,5,1.3
			c5.7,0,10.2-4.6,10.2-10.2C31.4,20,31.4,19.9,31.4,19.9z M21.2,28.7c-1.8,0-3.4-0.5-4.7-1.4l-3.3,1.1l1.1-3.2
			c-1-1.4-1.6-3.1-1.6-5c0-0.3,0-0.6,0-0.8c0.4-4.3,4.1-7.7,8.6-7.7c4.5,0,8.2,3.5,8.6,7.9c0,0.2,0,0.4,0,0.7
			C29.8,24.8,25.9,28.7,21.2,28.7z"/>
		<path id="XMLID_1864_" fill-rule="evenodd" clip-rule="evenodd" fill="#FFFFFF" d="M25.9,22.2c-0.3-0.1-1.5-0.7-1.7-0.8
			c-0.2-0.1-0.4-0.1-0.6,0.1c-0.2,0.2-0.7,0.8-0.8,1c-0.1,0.2-0.3,0.2-0.5,0.1c-0.2-0.1-1.1-0.4-2-1.2c-0.7-0.7-1.3-1.5-1.4-1.7
			c-0.1-0.2,0-0.4,0.1-0.5c0.1-0.1,0.2-0.3,0.4-0.4c0,0,0.1-0.1,0.1-0.1c0.1-0.1,0.1-0.2,0.2-0.3c0.1-0.2,0-0.3,0-0.4
			c-0.1-0.1-0.6-1.4-0.8-1.9c-0.2-0.5-0.4-0.4-0.6-0.4c-0.1,0-0.3,0-0.5,0s-0.4,0.1-0.7,0.3c-0.2,0.2-0.9,0.9-0.9,2.1
			c0,0.3,0.1,0.6,0.1,0.8c0.3,0.9,0.8,1.6,0.9,1.7c0.1,0.2,1.7,2.8,4.3,3.8c2.6,1,2.6,0.7,3,0.6c0.5,0,1.5-0.6,1.7-1.2
			c0.2-0.6,0.2-1.1,0.1-1.2C26.3,22.4,26.1,22.3,25.9,22.2z"/>
	</g>
</g>
</svg>
